<?xml version="1.0" ?><svg enable-background="new 0 0 512 512" id="Layer_1" version="1.1" viewBox="0 0 512 512" xml:space="preserve" xmlns="http://www.w3.org/2000/svg" xmlns:xlink="http://www.w3.org/1999/xlink"><g><g><linearGradient gradientUnits="userSpaceOnUse" id="SVGID_1_" x1="-0.0000027" x2="512" y1="256" y2="256"><stop offset="0" style="stop-color:#B49A85"/><stop offset="0.0650802" style="stop-color:#B0957F"/><stop offset="0.2856463" style="stop-color:#A88A71"/><stop offset="0.5538635" style="stop-color:#A38369"/><stop offset="1" style="stop-color:#A18166"/></linearGradient><circle cx="256" cy="256" fill="url(#SVGID_1_)" r="256"/><linearGradient gradientUnits="userSpaceOnUse" id="SVGID_2_" x1="42.6666641" x2="469.3333435" y1="256.0005188" y2="256.0005188"><stop offset="0" style="stop-color:#A18166"/><stop offset="0.4461364" style="stop-color:#A38369"/><stop offset="0.7143537" style="stop-color:#A88A71"/><stop offset="0.9349198" style="stop-color:#B0957F"/><stop offset="1" style="stop-color:#B49A85"/></linearGradient><path d="M256,469.3338623c-117.6314697,0-213.3333435-95.7018738-213.3333435-213.3333435    S138.3685303,42.6671982,256,42.6671982c117.6357422,0,213.3333435,95.7018661,213.3333435,213.333313    S373.6357422,469.3338623,256,469.3338623z" fill="url(#SVGID_2_)"/></g><g><path d="M359.4789429,211.1994629h-36.3333435v27.2048035    c6.3946533,3.3386688,10.2287903,8.8154602,10.2287903,15.1824036c0,10.6037292-10.7146606,18.5962524-24.9226685,18.5962524    c-14.2085266,0-24.9221191-7.9925232-24.9221191-18.5962524c0-6.3669434,3.8330688-11.8437347,10.2282715-15.1824036v-27.2048035    h-59.5162811v27.2048035c6.3946686,3.3386688,10.2282715,8.8154602,10.2282715,15.1824036    c0,10.6037292-10.7141266,18.5962524-24.9226685,18.5962524c-14.2079926,0-24.9221344-7.9925232-24.9221344-18.5962524    c0-6.3669434,3.8336029-11.8437347,10.2288055-15.1824036v-27.2048035h-36.3327942L152.7610626,384h222.4778595    L359.4789429,211.1994629z" opacity="0.3"/><path d="M219.5477295,262.3893433c8.3546753,0,15.1264038-3.9407959,15.1264038-8.8016052    c0-3.857605-4.2922668-7.1024017-10.2288055-8.2906647V193.352005c0-21.811203,17.7429352-39.5562744,39.5546722-39.5562744    c21.8106689,0,39.5535889,17.7450714,39.5535889,39.5562744v51.9450684    c-5.9359741,1.1898651-10.228241,4.4330597-10.228241,8.2906647c0,4.8608093,6.7722473,8.8016052,15.1258545,8.8016052    c8.354126,0,15.1264038-3.9407959,15.1264038-8.8016052c0-3.857605-4.2922668-7.1007996-10.2277527-8.2906647V193.352005    C313.3498535,166.1407928,291.2106628,144,264,144c-27.211731,0-49.3504028,22.1407928-49.3504028,49.352005v51.9450684    c-5.9360046,1.1898651-10.2282715,4.4330597-10.2282715,8.2906647    C204.4213257,258.4485474,211.1936035,262.3893433,219.5477295,262.3893433z" opacity="0.3"/></g><g><path d="M351.4789429,203.1994629h-36.3333435v27.2048035    c6.3946533,3.3386688,10.2287903,8.8154602,10.2287903,15.1824036c0,10.6037292-10.7146606,18.5962524-24.9226685,18.5962524    c-14.2085266,0-24.9221191-7.9925232-24.9221191-18.5962524c0-6.3669434,3.8330688-11.8437347,10.2282715-15.1824036v-27.2048035    h-59.5162811v27.2048035c6.3946686,3.3386688,10.2282715,8.8154602,10.2282715,15.1824036    c0,10.6037292-10.7141266,18.5962524-24.9226685,18.5962524c-14.2079926,0-24.9221344-7.9925232-24.9221344-18.5962524    c0-6.3669434,3.8336029-11.8437347,10.2288055-15.1824036v-27.2048035h-36.3327942L144.7610626,376h222.4778595    L351.4789429,203.1994629z" fill="#FFFFFF"/><path d="M211.5477295,254.389328c8.3546753,0,15.1264038-3.9407959,15.1264038-8.80159    c0-3.857605-4.2922668-7.1024017-10.2288055-8.2906647V185.352005c0-21.811203,17.7429352-39.5562744,39.5546722-39.5562744    c21.8106689,0,39.5535889,17.7450714,39.5535889,39.5562744v51.9450684    c-5.9359741,1.1898651-10.228241,4.4330597-10.228241,8.2906647c0,4.8607941,6.7722473,8.80159,15.1258545,8.80159    c8.354126,0,15.1264038-3.9407959,15.1264038-8.80159c0-3.857605-4.2922668-7.1007996-10.2277527-8.2906647V185.352005    C305.3498535,158.1407928,283.2106628,136,256,136c-27.211731,0-49.3504028,22.1407928-49.3504028,49.352005v51.9450684    c-5.9360046,1.1898651-10.2282715,4.4330597-10.2282715,8.2906647    C196.4213257,250.4485321,203.1936035,254.389328,211.5477295,254.389328z" fill="#FFFFFF"/></g></g></svg>