<?xml version="1.0" ?><!DOCTYPE svg  PUBLIC '-//W3C//DTD SVG 1.1//EN'  'http://www.w3.org/Graphics/SVG/1.1/DTD/svg11.dtd'><svg enable-background="new 0 0 711.071 705.07" height="705.07px" id="Layer_1" version="1.1" viewBox="0 0 711.071 705.07" width="711.071px" xml:space="preserve" xmlns="http://www.w3.org/2000/svg" xmlns:xlink="http://www.w3.org/1999/xlink"><circle cx="333.882" cy="359.09" fill="#111111" r="322.668"/><g><path d="M491.285,456.853c30.177,94.173-173.775,43.185-189.904,28.096v23.935c0,6.763-5.724,12.485-11.967,12.485   h-85.327c-6.243,0-11.967-5.723-11.967-12.485V308.571c0-6.243,5.724-11.966,11.967-11.966h85.327   c6.243,0,11.967,5.723,11.967,11.966v13.527c40.582-26.534,61.394-93.132,61.915-95.732c6.242-27.055,21.852-42.663,44.223-42.663   c23.413,0,50.988,22.892,50.988,71.278c0,11.968-4.683,30.697-11.966,44.745h7.283c30.697,0,65.557,14.568,54.11,58.792   c11.968,20.292,4.162,42.663-5.203,50.988C512.097,428.238,504.293,447.488,491.285,456.853z M456.947,402.224   c29.655,0,30.697-31.218,3.641-32.258c-5.722-0.521-5.722-6.244,0-6.244c27.057,0,22.373-34.339-6.764-34.339h-30.696   c-10.927,0-16.129-6.764-16.129-13.527c0-12.487,21.853-39.542,21.853-60.353c0-26.536-13.007-42.144-21.333-42.144   c-8.844,0-13.527,7.283-14.567,16.128c-6.243,41.624-52.028,110.821-91.57,127.991v94.172   c55.671,27.575,104.578,29.656,127.991,30.696c35.379,1.042,53.068-27.054,16.649-34.858c-7.805-1.04-7.284-7.805-1.563-7.805   c36.94,0,39.542-27.575,12.488-30.696C450.184,407.946,450.184,402.224,456.947,402.224z" fill="#F4B300"/></g></svg>