<?xml version="1.0" ?><!DOCTYPE svg  PUBLIC '-//W3C//DTD SVG 1.1//EN'  'http://www.w3.org/Graphics/SVG/1.1/DTD/svg11.dtd'><svg enable-background="new 0 0 711.071 705.07" height="705.07px" id="Layer_1" version="1.1" viewBox="0 0 711.071 705.07" width="711.071px" xml:space="preserve" xmlns="http://www.w3.org/2000/svg" xmlns:xlink="http://www.w3.org/1999/xlink"><circle cx="346.664" cy="351.301" fill="#111111" r="322.668"/><g><path d="M399.81,435.629c-29.263,0-57.963-10.129-81.599-29.826l-23.072,56.274l-58.524,58.525   c-6.189,4.502-12.943,6.753-20.26,6.753c-18.57,0-33.764-16.321-33.764-34.327c0-7.315,2.25-14.632,6.752-20.259l57.963-58.525   l56.838-23.073c-19.697-23.634-29.826-52.897-29.826-82.16c0-68.093,57.4-124.365,125.492-124.365   c67.529,0,124.93,57.399,124.93,124.928c0,32.64-11.82,64.716-36.018,88.913C463.962,423.249,431.886,435.629,399.81,435.629z    M399.81,387.232c41.643,0,76.533-34.89,76.533-77.659c0-41.643-35.454-76.532-76.533-76.532   c-42.206,0-77.096,35.453-77.096,76.532c0,20.26,7.315,39.955,22.509,55.149C360.417,379.354,380.113,387.232,399.81,387.232z" fill="#F4B300"/></g></svg>